<svg xmlns="http://www.w3.org/2000/svg" xmlns:xlink="http://www.w3.org/1999/xlink" width="100" height="100" viewBox="0 0 100 100">
  <defs>
    <style>
      .cls-1 {
        clip-path: url(#clip-readonly);
      }

      .cls-2 {
        fill: #990080;
      }

      .cls-3, .cls-4 {
        fill: #fff;
      }

      .cls-4 {
        stroke: #990080;
        stroke-width: 3px;
      }

      .cls-5 {
        stroke: none;
      }

      .cls-6 {
        fill: none;
      }
    </style>
    <clipPath id="clip-readonly">
      <rect width="100" height="100"/>
    </clipPath>
  </defs>
  <g id="readonly" class="cls-1">
    <circle id="Ellipse_1" data-name="Ellipse 1" class="cls-2" cx="50" cy="50" r="50"/>
    <path id="Pfad_22" data-name="Pfad 22" class="cls-3" d="M34.071-41.573,1.5-9.009.016,4.376a2.813,2.813,0,0,0,3.1,3.107L16.5,6.006,49.073-26.571Zm24.281-2.234-7.044-7.044a5.628,5.628,0,0,0-7.958,0l-6.627,6.627,15,15,6.627-6.627A5.628,5.628,0,0,0,58.352-43.807Z" transform="translate(19 72)"/>
    <g id="Rechteck_3" data-name="Rechteck 3" class="cls-4" transform="translate(21.657 16) rotate(45)">
      <rect class="cls-5" width="87" height="8" rx="4"/>
      <rect class="cls-6" x="-1.5" y="-1.5" width="90" height="11" rx="5.5"/>
    </g>
  </g>
</svg>
