<svg xmlns="http://www.w3.org/2000/svg" xmlns:xlink="http://www.w3.org/1999/xlink" width="16" height="16" viewBox="0 0 16 16">
  <defs>
    <clipPath id="clip-readonly-icon-mask">
      <rect width="16" height="16"/>
    </clipPath>
  </defs>
  <g id="readonly-icon-mask" clip-path="url(#clip-readonly-icon-mask)">
    <path d="M2520.41-1335.172l-14-14a1,1,0,0,1,0-1.417,1,1,0,0,1,1.417,0l5.033,5.033h0l3.76,3.759h0l5.2,5.2a1,1,0,0,1,0,1.418,1,1,0,0,1-.709.294A1,1,0,0,1,2520.41-1335.172Zm-13.774-.447a.7.7,0,0,1-.175-.547l.373-3.353,4.2-4.2,3.759,3.758-4.2,4.2-3.352.37a.786.786,0,0,1-.079,0A.7.7,0,0,1,2506.636-1335.62Zm10.4-6.589h0l-3.758-3.758,1.713-1.713,3.758,3.759-1.711,1.712Zm2.376-2.377-3.759-3.757,1.661-1.661a1.4,1.4,0,0,1,1-.413,1.4,1.4,0,0,1,1,.413l1.765,1.765a1.4,1.4,0,0,1,.413,1,1.4,1.4,0,0,1-.413,1l-1.659,1.66h0Z" transform="translate(-2506.121 1350.879)" fill="currentColor"/>
  </g>
</svg>
